# xmcd
#
# Track frame offsets:
#	150
#	20341
#	38268
#	57725
#	84272
#	110032
#	125440
#	141063
#	158394
#	175572
#
# Disc length: 2625 seconds
#
# Revision: 1
# Processed by: cddbd v1.5.1PL0 Copyright (c) Steve Scherf et al.
# Submitted via: audiograbber 1.83.01
#
DISCID=700a3f0a
DTITLE=Joe Cocker - Best of studio and live cd2
DYEAR=1900
DGENRE=Soul
TTITLE0=Honky tonk woman
TTITLE1=Cry me a river
TTITLE2=The letter
TTITLE3=Delta lady
TTITLE4=Feeling alright
TTITLE5=She came in through the bathroom window
TTITLE6=Dear land lord
TTITLE7=Hitchcock railway
TTITLE8=High time we went
TTITLE9=Midnight river
EXTD=
EXTT0=
EXTT1=
EXTT2=
EXTT3=
EXTT4=
EXTT5=
EXTT6=
EXTT7=
EXTT8=
EXTT9=
PLAYORDER=
